<?xml version="1.0" encoding="UTF-8"?><svg id="final_Outlines" xmlns="http://www.w3.org/2000/svg" viewBox="0 0 24 24"><defs><style>.cls-1{fill:#fff;}</style></defs><path class="cls-1" d="M1.05,21v-2.8c0-.55,.14-1.07,.42-1.55,.28-.48,.67-.85,1.17-1.1,.85-.43,1.81-.8,2.87-1.1,1.07-.3,2.24-.45,3.53-.45s2.46,.15,3.53,.45c1.07,.3,2.03,.67,2.88,1.1,.5,.25,.89,.62,1.17,1.1s.42,1,.42,1.55v2.8H1.05ZM9.05,13c-1.1,0-2.04-.39-2.82-1.18-.78-.78-1.18-1.73-1.18-2.82h-.25c-.15,0-.27-.05-.36-.14s-.14-.21-.14-.36,.05-.27,.14-.36c.09-.09,.21-.14,.36-.14h.25c0-.75,.18-1.42,.55-2.03,.37-.6,.85-1.07,1.45-1.42v.95c0,.15,.05,.27,.14,.36,.09,.09,.21,.14,.36,.14s.27-.05,.36-.14c.09-.09,.14-.21,.14-.36v-1.35c.15-.05,.31-.09,.48-.11,.17-.02,.34-.04,.52-.04s.36,.01,.52,.04c.17,.03,.33,.06,.48,.11v1.35c0,.15,.05,.27,.14,.36,.09,.09,.21,.14,.36,.14s.27-.05,.36-.14,.14-.21,.14-.36v-.95c.6,.35,1.08,.82,1.45,1.43s.55,1.27,.55,2.02h.25c.15,0,.27,.05,.36,.14,.09,.09,.14,.21,.14,.36s-.05,.27-.14,.36c-.09,.09-.21,.14-.36,.14h-.25c0,1.1-.39,2.04-1.18,2.82-.78,.78-1.72,1.18-2.82,1.18Zm0-2c.55,0,1.02-.2,1.41-.59s.59-.86,.59-1.41H7.05c0,.55,.2,1.02,.59,1.41,.39,.39,.86,.59,1.41,.59Zm7.5,4l-.15-.75c-.1-.03-.2-.07-.29-.11-.09-.04-.18-.1-.26-.19l-.7,.25-.5-.9,.55-.5v-.6l-.55-.5,.5-.9,.7,.25c.07-.07,.15-.12,.25-.18,.1-.05,.2-.09,.3-.12l.15-.75h1l.15,.75c.1,.03,.2,.07,.3,.12s.18,.11,.25,.18l.7-.25,.5,.9-.55,.5v.6l.55,.5-.5,.9-.7-.25c-.08,.08-.17,.15-.26,.19-.09,.04-.19,.08-.29,.11l-.15,.75h-1Zm.5-1.75c.2,0,.37-.07,.52-.23,.15-.15,.23-.32,.23-.52s-.08-.38-.23-.52c-.15-.15-.33-.23-.52-.23s-.37,.07-.52,.23c-.15,.15-.23,.32-.23,.52s.08,.38,.23,.52c.15,.15,.33,.23,.52,.23Zm1.8-3.25l-.2-1.05c-.15-.05-.29-.11-.41-.19-.13-.07-.24-.16-.34-.26l-1.05,.35-.7-1.2,.85-.75c-.03-.08-.05-.15-.05-.2v-.4c0-.05,.02-.12,.05-.2l-.85-.75,.7-1.2,1.05,.35c.1-.1,.21-.19,.34-.26,.12-.07,.26-.14,.41-.19l.2-1.05h1.4l.2,1.05c.15,.05,.29,.11,.41,.19,.12,.08,.24,.16,.34,.26l1.05-.35,.7,1.2-.85,.75c.03,.08,.05,.15,.05,.2v.4s-.02,.12-.05,.2l.85,.75-.7,1.2-1.05-.35c-.1,.1-.21,.19-.34,.26-.13,.08-.26,.14-.41,.19l-.2,1.05h-1.4Zm.7-2.25c.35,0,.65-.12,.89-.36,.24-.24,.36-.54,.36-.89s-.12-.65-.36-.89c-.24-.24-.54-.36-.89-.36s-.65,.12-.89,.36c-.24,.24-.36,.54-.36,.89s.12,.65,.36,.89c.24,.24,.54,.36,.89,.36Z"/></svg>