<?xml version="1.0" encoding="UTF-8"?><svg id="final_Outlines" xmlns="http://www.w3.org/2000/svg" viewBox="0 0 24 24"><defs><style>.cls-1{fill:#fff;}</style></defs><path class="cls-1" d="M11.95,18c.35,0,.65-.12,.89-.36,.24-.24,.36-.54,.36-.89,0-.35-.12-.65-.36-.89-.24-.24-.54-.36-.89-.36s-.65,.12-.89,.36c-.24,.24-.36,.54-.36,.89,0,.35,.12,.65,.36,.89,.24,.24,.54,.36,.89,.36Zm-.9-3.85h1.85c0-.55,.06-.98,.19-1.3,.12-.32,.48-.75,1.06-1.3,.43-.43,.77-.85,1.02-1.24,.25-.39,.38-.86,.38-1.41,0-.93-.34-1.65-1.02-2.15-.68-.5-1.49-.75-2.43-.75s-1.72,.25-2.31,.75c-.59,.5-1,1.1-1.24,1.8l1.65,.65c.08-.3,.27-.62,.56-.98,.29-.35,.74-.53,1.34-.52,.53,0,.93,.15,1.2,.44,.27,.29,.4,.61,.4,.96s-.1,.65-.3,.94c-.2,.29-.45,.56-.75,.81-.73,.65-1.18,1.14-1.35,1.48s-.25,.94-.25,1.82Zm.95,7.85c-1.38,0-2.68-.26-3.9-.79-1.22-.52-2.27-1.24-3.18-2.14-.9-.9-1.61-1.96-2.14-3.18-.53-1.22-.79-2.52-.79-3.9s.26-2.68,.79-3.9c.52-1.22,1.24-2.27,2.14-3.18,.9-.9,1.96-1.61,3.18-2.14,1.22-.52,2.52-.79,3.9-.79s2.68,.26,3.9,.79c1.22,.53,2.28,1.24,3.17,2.14,.9,.9,1.61,1.96,2.14,3.18,.53,1.22,.79,2.52,.79,3.9s-.26,2.68-.79,3.9c-.52,1.22-1.24,2.28-2.14,3.17-.9,.9-1.96,1.61-3.18,2.14-1.22,.53-2.52,.79-3.9,.79Z"/></svg>