<?xml version="1.0" encoding="UTF-8"?><svg id="final_Outlines" xmlns="http://www.w3.org/2000/svg" viewBox="0 0 24 24"><defs><style>.cls-1{fill:#fff;}</style></defs><path class="cls-1" d="M15.5,16.9l1.4-1.4c.1-.1,.15-.22,.15-.35s-.05-.25-.15-.35l-3.4-3.43c.07-.18,.12-.37,.15-.55s.05-.39,.05-.62c0-.95-.34-1.76-1.01-2.44-.68-.67-1.49-1.01-2.44-1.01-.28,0-.57,.04-.85,.11-.28,.08-.56,.18-.82,.31l2.35,2.35-1.4,1.4-2.35-2.35c-.13,.27-.24,.54-.31,.82-.08,.28-.11,.57-.11,.85,0,.95,.34,1.76,1.01,2.44,.67,.67,1.49,1.01,2.44,1.01,.22,0,.42-.02,.61-.05,.19-.03,.38-.08,.56-.15l3.43,3.4c.1,.1,.22,.15,.35,.15s.25-.05,.35-.15Zm-3.5,5.1c-1.38,0-2.68-.26-3.9-.79-1.22-.52-2.27-1.24-3.18-2.14-.9-.9-1.61-1.96-2.14-3.18-.53-1.22-.79-2.52-.79-3.9s.26-2.68,.79-3.9c.52-1.22,1.24-2.27,2.14-3.18,.9-.9,1.96-1.61,3.18-2.14,1.22-.52,2.52-.79,3.9-.79s2.68,.26,3.9,.79c1.22,.53,2.28,1.24,3.17,2.14,.9,.9,1.61,1.96,2.14,3.18,.53,1.22,.79,2.52,.79,3.9s-.26,2.68-.79,3.9c-.52,1.22-1.24,2.28-2.14,3.17-.9,.9-1.96,1.61-3.18,2.14-1.22,.53-2.52,.79-3.9,.79Z"/></svg>