<?xml version="1.0" encoding="UTF-8"?><svg id="final_Outlines" xmlns="http://www.w3.org/2000/svg" viewBox="0 0 24 24"><defs><style>.cls-1{fill:#fff;}</style></defs><path class="cls-1" d="M5.85,17.1c.85-.65,1.8-1.16,2.85-1.54,1.05-.37,2.15-.56,3.3-.56s2.25,.19,3.3,.56c1.05,.38,2,.89,2.85,1.54,.58-.68,1.04-1.46,1.36-2.32,.32-.87,.49-1.79,.49-2.78,0-2.22-.78-4.1-2.34-5.66-1.56-1.56-3.45-2.34-5.66-2.34s-4.1,.78-5.66,2.34-2.34,3.45-2.34,5.66c0,.98,.16,1.91,.49,2.77,.32,.87,.78,1.64,1.36,2.33Zm6.15-4.1c-.98,0-1.81-.34-2.49-1.01-.67-.68-1.01-1.5-1.01-2.49s.34-1.81,1.01-2.49c.68-.67,1.5-1.01,2.49-1.01s1.81,.34,2.49,1.01c.67,.68,1.01,1.5,1.01,2.49s-.34,1.81-1.01,2.49c-.68,.67-1.5,1.01-2.49,1.01Zm0,9c-1.38,0-2.68-.26-3.9-.79-1.22-.52-2.27-1.24-3.18-2.14-.9-.9-1.61-1.96-2.14-3.18-.53-1.22-.79-2.52-.79-3.9s.26-2.68,.79-3.9c.52-1.22,1.24-2.27,2.14-3.18,.9-.9,1.96-1.61,3.18-2.14,1.22-.52,2.52-.79,3.9-.79s2.68,.26,3.9,.79c1.22,.53,2.28,1.24,3.17,2.14,.9,.9,1.61,1.96,2.14,3.18,.53,1.22,.79,2.52,.79,3.9s-.26,2.68-.79,3.9c-.52,1.22-1.24,2.28-2.14,3.17-.9,.9-1.96,1.61-3.18,2.14-1.22,.53-2.52,.79-3.9,.79Z"/></svg>