<?xml version="1.0" encoding="UTF-8"?><svg id="final_Outlines" xmlns="http://www.w3.org/2000/svg" viewBox="0 0 24 24"><defs><style>.cls-1{fill:#fff;}</style></defs><path class="cls-1" d="M9.25,22l-.4-3.2c-.22-.08-.42-.18-.61-.3-.19-.12-.38-.24-.56-.38l-2.98,1.25L1.95,14.62l2.57-1.95c-.02-.12-.02-.23-.02-.34v-.68c0-.11,0-.22,.03-.34l-2.58-1.95,2.75-4.75,2.97,1.25c.18-.13,.38-.26,.58-.38s.4-.22,.6-.3l.4-3.2h5.5l.4,3.2c.22,.08,.42,.18,.61,.3,.19,.12,.38,.24,.56,.38l2.98-1.25,2.75,4.75-2.58,1.95c.02,.12,.02,.23,.02,.34v.68c0,.11-.02,.22-.05,.34l2.58,1.95-2.75,4.75-2.95-1.25c-.18,.13-.37,.26-.57,.38-.2,.12-.4,.22-.6,.3l-.4,3.2h-5.5Zm2.8-6.5c.97,0,1.79-.34,2.47-1.02s1.03-1.51,1.03-2.48-.34-1.79-1.02-2.48c-.68-.68-1.51-1.02-2.48-1.02s-1.81,.34-2.49,1.02c-.67,.68-1.01,1.51-1.01,2.48s.34,1.79,1.01,2.48c.68,.68,1.5,1.02,2.49,1.02Z"/></svg>